<mxfile host="app.diagrams.net" modified="2020-08-02T07:00:09.228Z" agent="5.0 (Windows NT 10.0; Win64; x64) AppleWebKit/537.36 (KHTML, like Gecko) Chrome/84.0.4147.105 Safari/537.36" etag="7h68BDDXaB12K6tg9LBi" version="13.5.8" type="github">
  <diagram id="kgpKYQtTHZ0yAKxKKP6v" name="Biz process">
    <mxGraphModel dx="868" dy="450" grid="1" gridSize="10" guides="1" tooltips="1" connect="1" arrows="1" fold="1" page="1" pageScale="1" pageWidth="850" pageHeight="1100" math="0" shadow="0">
      <root>
        <mxCell id="0" />
        <mxCell id="1" parent="0" />
        <mxCell id="3nuBFxr9cyL0pnOWT2aG-1" value="Notification Service" style="shape=table;childLayout=tableLayout;rowLines=0;columnLines=0;startSize=40;html=1;whiteSpace=wrap;collapsible=0;recursiveResize=0;expand=0;fontStyle=1;dashed=1;" parent="1" vertex="1">
          <mxGeometry x="100" y="110" width="680" height="430" as="geometry" />
        </mxCell>
        <mxCell id="3nuBFxr9cyL0pnOWT2aG-2" value="" style="edgeStyle=orthogonalEdgeStyle;rounded=0;orthogonalLoop=1;jettySize=auto;html=1;entryX=0.5;entryY=0;entryDx=0;entryDy=0;" parent="3nuBFxr9cyL0pnOWT2aG-1" source="3nuBFxr9cyL0pnOWT2aG-7" target="4x0DBsmedhbezIaQ5GLJ-2" edge="1">
          <mxGeometry relative="1" as="geometry">
            <mxPoint x="105" y="240" as="targetPoint" />
          </mxGeometry>
        </mxCell>
        <mxCell id="3nuBFxr9cyL0pnOWT2aG-3" value="Business Application" style="swimlane;horizontal=0;points=[[0,0.5],[1,0.5]];portConstraint=eastwest;startSize=40;html=1;whiteSpace=wrap;collapsible=0;recursiveResize=0;expand=0;" parent="3nuBFxr9cyL0pnOWT2aG-1" vertex="1">
          <mxGeometry y="40" width="680" height="184" as="geometry" />
        </mxCell>
        <mxCell id="3nuBFxr9cyL0pnOWT2aG-4" value="Message" style="swimlane;connectable=0;startSize=40;html=1;whiteSpace=wrap;collapsible=0;recursiveResize=0;expand=0;" parent="3nuBFxr9cyL0pnOWT2aG-3" vertex="1">
          <mxGeometry x="40" width="132" height="184" as="geometry" />
        </mxCell>
        <mxCell id="3nuBFxr9cyL0pnOWT2aG-5" style="edgeStyle=orthogonalEdgeStyle;rounded=0;orthogonalLoop=1;jettySize=auto;html=1;" parent="3nuBFxr9cyL0pnOWT2aG-4" source="3nuBFxr9cyL0pnOWT2aG-6" target="3nuBFxr9cyL0pnOWT2aG-7" edge="1">
          <mxGeometry relative="1" as="geometry" />
        </mxCell>
        <mxCell id="3nuBFxr9cyL0pnOWT2aG-6" value="Biz Event" style="rounded=1;whiteSpace=wrap;html=1;arcSize=50;" parent="3nuBFxr9cyL0pnOWT2aG-4" vertex="1">
          <mxGeometry x="20" y="60" width="90" height="40" as="geometry" />
        </mxCell>
        <mxCell id="3nuBFxr9cyL0pnOWT2aG-7" value="Invoke Notification Endpoint" style="rounded=0;whiteSpace=wrap;html=1;" parent="3nuBFxr9cyL0pnOWT2aG-4" vertex="1">
          <mxGeometry x="20" y="120" width="90" height="40" as="geometry" />
        </mxCell>
        <mxCell id="3nuBFxr9cyL0pnOWT2aG-8" value="Process" style="swimlane;connectable=0;startSize=40;html=1;whiteSpace=wrap;collapsible=0;recursiveResize=0;expand=0;" parent="3nuBFxr9cyL0pnOWT2aG-3" vertex="1">
          <mxGeometry x="172" width="376" height="184" as="geometry" />
        </mxCell>
        <mxCell id="4x0DBsmedhbezIaQ5GLJ-26" value="" style="rounded=1;whiteSpace=wrap;html=1;glass=0;" vertex="1" parent="3nuBFxr9cyL0pnOWT2aG-8">
          <mxGeometry x="18" y="49" width="82" height="115" as="geometry" />
        </mxCell>
        <mxCell id="3nuBFxr9cyL0pnOWT2aG-21" value="Accepted" style="shape=document;whiteSpace=wrap;html=1;boundedLbl=1;" parent="3nuBFxr9cyL0pnOWT2aG-8" vertex="1">
          <mxGeometry x="28" y="64" width="60" height="40" as="geometry" />
        </mxCell>
        <mxCell id="4x0DBsmedhbezIaQ5GLJ-6" value="Bad Request" style="shape=document;whiteSpace=wrap;html=1;boundedLbl=1;" vertex="1" parent="3nuBFxr9cyL0pnOWT2aG-8">
          <mxGeometry x="27" y="114" width="60" height="40" as="geometry" />
        </mxCell>
        <mxCell id="4x0DBsmedhbezIaQ5GLJ-62" value="" style="shape=process;whiteSpace=wrap;html=1;backgroundOutline=1;glass=0;fontSize=9;" vertex="1" parent="3nuBFxr9cyL0pnOWT2aG-8">
          <mxGeometry x="228" y="190" width="142" height="188" as="geometry" />
        </mxCell>
        <mxCell id="3nuBFxr9cyL0pnOWT2aG-11" value="" style="swimlane;connectable=0;startSize=40;html=1;whiteSpace=wrap;collapsible=0;recursiveResize=0;expand=0;" parent="3nuBFxr9cyL0pnOWT2aG-3" vertex="1">
          <mxGeometry x="548" width="132" height="184" as="geometry" />
        </mxCell>
        <mxCell id="3nuBFxr9cyL0pnOWT2aG-15" value="Notification Engine" style="swimlane;horizontal=0;points=[[0,0.5],[1,0.5]];portConstraint=eastwest;startSize=40;html=1;whiteSpace=wrap;collapsible=0;recursiveResize=0;expand=0;" parent="3nuBFxr9cyL0pnOWT2aG-1" vertex="1">
          <mxGeometry y="224" width="680" height="206" as="geometry" />
        </mxCell>
        <mxCell id="3nuBFxr9cyL0pnOWT2aG-16" value="" style="swimlane;connectable=0;startSize=0;html=1;whiteSpace=wrap;collapsible=0;recursiveResize=0;expand=0;" parent="3nuBFxr9cyL0pnOWT2aG-15" vertex="1">
          <mxGeometry x="40" width="132" height="206" as="geometry" />
        </mxCell>
        <mxCell id="4x0DBsmedhbezIaQ5GLJ-11" value="" style="endArrow=classic;html=1;exitX=0.5;exitY=1;exitDx=0;exitDy=0;entryX=0.5;entryY=0;entryDx=0;entryDy=0;" edge="1" parent="3nuBFxr9cyL0pnOWT2aG-16" source="4x0DBsmedhbezIaQ5GLJ-2">
          <mxGeometry width="50" height="50" relative="1" as="geometry">
            <mxPoint x="270" y="40" as="sourcePoint" />
            <mxPoint x="66" y="120" as="targetPoint" />
          </mxGeometry>
        </mxCell>
        <mxCell id="4x0DBsmedhbezIaQ5GLJ-2" value="&lt;span style=&quot;color: rgb(0 , 0 , 0) ; font-family: &amp;#34;helvetica&amp;#34; ; font-size: 12px ; font-style: normal ; font-weight: 400 ; letter-spacing: normal ; text-align: center ; text-indent: 0px ; text-transform: none ; word-spacing: 0px ; background-color: rgb(248 , 249 , 250) ; display: inline ; float: none&quot;&gt;Validate &lt;br&gt;request&lt;br&gt;1. Message&lt;br&gt;2. Duplicate&lt;br&gt;&lt;/span&gt;" style="rhombus;whiteSpace=wrap;html=1;" vertex="1" parent="3nuBFxr9cyL0pnOWT2aG-16">
          <mxGeometry x="10" y="30" width="110" height="140" as="geometry" />
        </mxCell>
        <mxCell id="4x0DBsmedhbezIaQ5GLJ-27" value="OK" style="text;html=1;strokeColor=none;fillColor=none;align=center;verticalAlign=middle;whiteSpace=wrap;rounded=0;glass=0;" vertex="1" parent="3nuBFxr9cyL0pnOWT2aG-16">
          <mxGeometry x="80" y="160" width="40" height="20" as="geometry" />
        </mxCell>
        <mxCell id="3nuBFxr9cyL0pnOWT2aG-18" value="" style="swimlane;connectable=0;startSize=0;html=1;whiteSpace=wrap;collapsible=0;recursiveResize=0;expand=0;swimlaneLine=1;glass=0;dashed=1;" parent="3nuBFxr9cyL0pnOWT2aG-15" vertex="1">
          <mxGeometry x="172" width="376" height="206" as="geometry" />
        </mxCell>
        <mxCell id="4x0DBsmedhbezIaQ5GLJ-56" value="Get Email &lt;br&gt;Templates&amp;nbsp;" style="shape=step;perimeter=stepPerimeter;whiteSpace=wrap;html=1;fixedSize=1;glass=0;fontSize=9;" vertex="1" parent="3nuBFxr9cyL0pnOWT2aG-18">
          <mxGeometry x="251" y="16" width="102" height="24" as="geometry" />
        </mxCell>
        <mxCell id="4x0DBsmedhbezIaQ5GLJ-38" value="&lt;h1 style=&quot;font-size: 9px;&quot;&gt;Queue:&lt;/h1&gt;&lt;div style=&quot;font-size: 9px;&quot;&gt;Hiold Messages in Queue for scalability&amp;nbsp;&lt;/div&gt;" style="text;html=1;strokeColor=none;fillColor=none;spacing=5;spacingTop=-20;whiteSpace=wrap;overflow=hidden;rounded=0;glass=0;fontSize=9;" vertex="1" parent="3nuBFxr9cyL0pnOWT2aG-18">
          <mxGeometry x="10.6" y="30" width="59.4" height="50" as="geometry" />
        </mxCell>
        <mxCell id="4x0DBsmedhbezIaQ5GLJ-57" value="Build SMS &lt;br&gt;template" style="shape=step;perimeter=stepPerimeter;whiteSpace=wrap;html=1;fixedSize=1;glass=0;fontSize=9;" vertex="1" parent="3nuBFxr9cyL0pnOWT2aG-18">
          <mxGeometry x="251" y="46" width="102" height="24" as="geometry" />
        </mxCell>
        <mxCell id="4x0DBsmedhbezIaQ5GLJ-58" value="Send Email&amp;nbsp;" style="shape=step;perimeter=stepPerimeter;whiteSpace=wrap;html=1;fixedSize=1;glass=0;fontSize=9;" vertex="1" parent="3nuBFxr9cyL0pnOWT2aG-18">
          <mxGeometry x="251" y="75" width="102" height="24" as="geometry" />
        </mxCell>
        <mxCell id="4x0DBsmedhbezIaQ5GLJ-31" value="Build Message" style="swimlane;html=1;startSize=20;horizontal=1;containerType=tree;newEdgeStyle={&quot;edgeStyle&quot;:&quot;elbowEdgeStyle&quot;,&quot;startArrow&quot;:&quot;none&quot;,&quot;endArrow&quot;:&quot;none&quot;};glass=0;" vertex="1" parent="3nuBFxr9cyL0pnOWT2aG-18">
          <mxGeometry x="70" y="10" width="110" height="190" as="geometry" />
        </mxCell>
        <mxCell id="4x0DBsmedhbezIaQ5GLJ-32" value="" style="edgeStyle=elbowEdgeStyle;elbow=vertical;startArrow=none;endArrow=none;rounded=0;" edge="1" parent="4x0DBsmedhbezIaQ5GLJ-31" source="4x0DBsmedhbezIaQ5GLJ-34" target="4x0DBsmedhbezIaQ5GLJ-35">
          <mxGeometry relative="1" as="geometry" />
        </mxCell>
        <UserObject label="Get User details from user Store" treeRoot="1" id="4x0DBsmedhbezIaQ5GLJ-34">
          <mxCell style="whiteSpace=wrap;html=1;align=center;treeFolding=1;treeMoving=1;newEdgeStyle={&quot;edgeStyle&quot;:&quot;elbowEdgeStyle&quot;,&quot;startArrow&quot;:&quot;none&quot;,&quot;endArrow&quot;:&quot;none&quot;};" vertex="1" parent="4x0DBsmedhbezIaQ5GLJ-31">
            <mxGeometry x="8" y="26" width="90" height="30" as="geometry" />
          </mxCell>
        </UserObject>
        <mxCell id="4x0DBsmedhbezIaQ5GLJ-35" value="Get Config based on Events" style="whiteSpace=wrap;html=1;align=center;verticalAlign=middle;treeFolding=1;treeMoving=1;newEdgeStyle={&quot;edgeStyle&quot;:&quot;elbowEdgeStyle&quot;,&quot;startArrow&quot;:&quot;none&quot;,&quot;endArrow&quot;:&quot;none&quot;};" vertex="1" parent="4x0DBsmedhbezIaQ5GLJ-31">
          <mxGeometry x="5.5" y="66" width="95" height="30" as="geometry" />
        </mxCell>
        <mxCell id="4x0DBsmedhbezIaQ5GLJ-52" value="" style="edgeStyle=elbowEdgeStyle;elbow=vertical;startArrow=none;endArrow=none;rounded=0;" edge="1" target="4x0DBsmedhbezIaQ5GLJ-53" source="4x0DBsmedhbezIaQ5GLJ-35" parent="4x0DBsmedhbezIaQ5GLJ-31">
          <mxGeometry relative="1" as="geometry">
            <mxPoint x="402" y="480" as="sourcePoint" />
          </mxGeometry>
        </mxCell>
        <mxCell id="4x0DBsmedhbezIaQ5GLJ-53" value="Store message in Dynamo Db" style="whiteSpace=wrap;html=1;align=center;verticalAlign=middle;treeFolding=1;treeMoving=1;newEdgeStyle={&quot;edgeStyle&quot;:&quot;elbowEdgeStyle&quot;,&quot;startArrow&quot;:&quot;none&quot;,&quot;endArrow&quot;:&quot;none&quot;};" vertex="1" parent="4x0DBsmedhbezIaQ5GLJ-31">
          <mxGeometry x="5.5" y="106" width="95" height="30" as="geometry" />
        </mxCell>
        <mxCell id="4x0DBsmedhbezIaQ5GLJ-54" value="" style="edgeStyle=elbowEdgeStyle;elbow=vertical;startArrow=none;endArrow=none;rounded=0;" edge="1" target="4x0DBsmedhbezIaQ5GLJ-55" source="4x0DBsmedhbezIaQ5GLJ-53" parent="4x0DBsmedhbezIaQ5GLJ-31">
          <mxGeometry relative="1" as="geometry">
            <mxPoint x="402" y="430" as="sourcePoint" />
          </mxGeometry>
        </mxCell>
        <mxCell id="4x0DBsmedhbezIaQ5GLJ-55" value="Stream messages based on User pref" style="whiteSpace=wrap;html=1;align=center;verticalAlign=middle;treeFolding=1;treeMoving=1;newEdgeStyle={&quot;edgeStyle&quot;:&quot;elbowEdgeStyle&quot;,&quot;startArrow&quot;:&quot;none&quot;,&quot;endArrow&quot;:&quot;none&quot;};" vertex="1" parent="4x0DBsmedhbezIaQ5GLJ-31">
          <mxGeometry x="5.5" y="146" width="95" height="44" as="geometry" />
        </mxCell>
        <mxCell id="4x0DBsmedhbezIaQ5GLJ-37" value="" style="outlineConnect=0;fontColor=#232F3E;gradientColor=none;fillColor=#BC1356;strokeColor=none;dashed=0;verticalLabelPosition=bottom;verticalAlign=top;align=center;html=1;fontSize=12;fontStyle=0;aspect=fixed;pointerEvents=1;shape=mxgraph.aws4.queue;glass=0;" vertex="1" parent="3nuBFxr9cyL0pnOWT2aG-18">
          <mxGeometry x="24" y="95" width="33.19" height="20" as="geometry" />
        </mxCell>
        <mxCell id="4x0DBsmedhbezIaQ5GLJ-39" value="" style="endArrow=classic;html=1;fontSize=9;entryX=0;entryY=0.5;entryDx=0;entryDy=0;" edge="1" parent="3nuBFxr9cyL0pnOWT2aG-18" source="4x0DBsmedhbezIaQ5GLJ-37" target="4x0DBsmedhbezIaQ5GLJ-31">
          <mxGeometry width="50" height="50" relative="1" as="geometry">
            <mxPoint x="218" y="100" as="sourcePoint" />
            <mxPoint x="268" y="50" as="targetPoint" />
          </mxGeometry>
        </mxCell>
        <mxCell id="4x0DBsmedhbezIaQ5GLJ-40" value="" style="verticalLabelPosition=bottom;html=1;verticalAlign=top;strokeWidth=2;shape=mxgraph.lean_mapping.push_arrow;glass=0;fontSize=9;" vertex="1" parent="3nuBFxr9cyL0pnOWT2aG-18">
          <mxGeometry x="180" y="95" width="50" height="30" as="geometry" />
        </mxCell>
        <mxCell id="4x0DBsmedhbezIaQ5GLJ-59" value="Send SMSl&amp;nbsp;" style="shape=step;perimeter=stepPerimeter;whiteSpace=wrap;html=1;fixedSize=1;glass=0;fontSize=9;" vertex="1" parent="3nuBFxr9cyL0pnOWT2aG-18">
          <mxGeometry x="251" y="107" width="102" height="24" as="geometry" />
        </mxCell>
        <mxCell id="4x0DBsmedhbezIaQ5GLJ-60" value="Store Message&lt;br&gt;in Db" style="shape=step;perimeter=stepPerimeter;whiteSpace=wrap;html=1;fixedSize=1;glass=0;fontSize=9;" vertex="1" parent="3nuBFxr9cyL0pnOWT2aG-18">
          <mxGeometry x="251" y="137" width="102" height="24" as="geometry" />
        </mxCell>
        <mxCell id="3nuBFxr9cyL0pnOWT2aG-23" value="" style="swimlane;connectable=0;startSize=0;html=1;whiteSpace=wrap;collapsible=0;recursiveResize=0;expand=0;" parent="3nuBFxr9cyL0pnOWT2aG-15" vertex="1">
          <mxGeometry x="548" width="132" height="206" as="geometry" />
        </mxCell>
        <mxCell id="4x0DBsmedhbezIaQ5GLJ-64" value="" style="outlineConnect=0;dashed=0;verticalLabelPosition=bottom;verticalAlign=top;align=center;html=1;shape=mxgraph.aws3.email;fillColor=#D9A741;gradientColor=none;glass=0;fontSize=9;" vertex="1" parent="3nuBFxr9cyL0pnOWT2aG-23">
          <mxGeometry x="33" width="54" height="30" as="geometry" />
        </mxCell>
        <mxCell id="4x0DBsmedhbezIaQ5GLJ-66" value="" style="shape=image;html=1;verticalAlign=top;verticalLabelPosition=bottom;labelBackgroundColor=#ffffff;imageAspect=0;aspect=fixed;image=https://cdn0.iconfinder.com/data/icons/interface-3-4/100/Conversation-128.png;glass=0;fontSize=9;" vertex="1" parent="3nuBFxr9cyL0pnOWT2aG-23">
          <mxGeometry x="40.5" y="46" width="39" height="39" as="geometry" />
        </mxCell>
        <mxCell id="4x0DBsmedhbezIaQ5GLJ-67" value="" style="shape=image;html=1;verticalAlign=top;verticalLabelPosition=bottom;labelBackgroundColor=#ffffff;imageAspect=0;aspect=fixed;image=https://cdn2.iconfinder.com/data/icons/mobile-and-internet-business/505/sms-128.png;glass=0;fontSize=9;" vertex="1" parent="3nuBFxr9cyL0pnOWT2aG-23">
          <mxGeometry x="42" y="85" width="36" height="36" as="geometry" />
        </mxCell>
        <mxCell id="4x0DBsmedhbezIaQ5GLJ-69" value="" style="dashed=0;outlineConnect=0;html=1;align=center;labelPosition=center;verticalLabelPosition=bottom;verticalAlign=top;shape=mxgraph.webicons.whatsapp;fillColor=#4FE238;gradientColor=#138709;glass=0;fontSize=9;" vertex="1" parent="3nuBFxr9cyL0pnOWT2aG-23">
          <mxGeometry x="35" y="136" width="50" height="34" as="geometry" />
        </mxCell>
        <mxCell id="4x0DBsmedhbezIaQ5GLJ-24" value="" style="endArrow=classic;html=1;exitX=0.5;exitY=1;exitDx=0;exitDy=0;edgeStyle=orthogonalEdgeStyle;" edge="1" parent="3nuBFxr9cyL0pnOWT2aG-15" source="4x0DBsmedhbezIaQ5GLJ-2" target="4x0DBsmedhbezIaQ5GLJ-37">
          <mxGeometry width="50" height="50" relative="1" as="geometry">
            <mxPoint x="310" y="140" as="sourcePoint" />
            <mxPoint x="200" y="100" as="targetPoint" />
          </mxGeometry>
        </mxCell>
        <mxCell id="4x0DBsmedhbezIaQ5GLJ-28" value="" style="endArrow=classic;html=1;exitX=1;exitY=0.5;exitDx=0;exitDy=0;edgeStyle=orthogonalEdgeStyle;entryX=0;entryY=0.5;entryDx=0;entryDy=0;" edge="1" parent="3nuBFxr9cyL0pnOWT2aG-1" source="4x0DBsmedhbezIaQ5GLJ-2" target="4x0DBsmedhbezIaQ5GLJ-26">
          <mxGeometry width="50" height="50" relative="1" as="geometry">
            <mxPoint x="400" y="230" as="sourcePoint" />
            <mxPoint x="179" y="180" as="targetPoint" />
          </mxGeometry>
        </mxCell>
        <mxCell id="4x0DBsmedhbezIaQ5GLJ-113" value="Exceptions" style="swimlane;horizontal=0;points=[[0,0.5],[1,0.5]];portConstraint=eastwest;startSize=40;html=1;whiteSpace=wrap;collapsible=0;recursiveResize=0;expand=0;" vertex="1" parent="1">
          <mxGeometry x="100" y="540" width="680" height="120" as="geometry" />
        </mxCell>
        <mxCell id="4x0DBsmedhbezIaQ5GLJ-142" value="No User Found" style="rounded=0;whiteSpace=wrap;html=1;glass=0;fontSize=9;" vertex="1" parent="4x0DBsmedhbezIaQ5GLJ-113">
          <mxGeometry x="61" y="70" width="90" height="40" as="geometry" />
        </mxCell>
        <mxCell id="4x0DBsmedhbezIaQ5GLJ-143" value="Biz Event &lt;br&gt;not Config" style="rounded=0;whiteSpace=wrap;html=1;glass=0;fontSize=9;" vertex="1" parent="4x0DBsmedhbezIaQ5GLJ-113">
          <mxGeometry x="60" y="10" width="90" height="40" as="geometry" />
        </mxCell>
        <mxCell id="4x0DBsmedhbezIaQ5GLJ-145" value="User Does not provided communication channels" style="rounded=0;whiteSpace=wrap;html=1;glass=0;fontSize=9;" vertex="1" parent="4x0DBsmedhbezIaQ5GLJ-113">
          <mxGeometry x="170" y="10" width="90" height="40" as="geometry" />
        </mxCell>
        <mxCell id="4x0DBsmedhbezIaQ5GLJ-146" value="No Email Template Found" style="rounded=0;whiteSpace=wrap;html=1;glass=0;fontSize=9;" vertex="1" parent="4x0DBsmedhbezIaQ5GLJ-113">
          <mxGeometry x="170" y="70" width="90" height="40" as="geometry" />
        </mxCell>
        <mxCell id="4x0DBsmedhbezIaQ5GLJ-147" value="Email Bounced" style="rounded=0;whiteSpace=wrap;html=1;glass=0;fontSize=9;" vertex="1" parent="4x0DBsmedhbezIaQ5GLJ-113">
          <mxGeometry x="280" y="70" width="90" height="40" as="geometry" />
        </mxCell>
        <mxCell id="4x0DBsmedhbezIaQ5GLJ-148" value="Email Bounced" style="rounded=0;whiteSpace=wrap;html=1;glass=0;fontSize=9;" vertex="1" parent="4x0DBsmedhbezIaQ5GLJ-113">
          <mxGeometry x="280" y="10" width="90" height="40" as="geometry" />
        </mxCell>
        <mxCell id="4x0DBsmedhbezIaQ5GLJ-149" value="" style="outlineConnect=0;fontColor=#232F3E;gradientColor=none;fillColor=#BC1356;strokeColor=none;dashed=0;verticalLabelPosition=bottom;verticalAlign=top;align=center;html=1;fontSize=12;fontStyle=0;aspect=fixed;pointerEvents=1;shape=mxgraph.aws4.queue;glass=0;" vertex="1" parent="4x0DBsmedhbezIaQ5GLJ-113">
          <mxGeometry x="400" y="35" width="82.98" height="50" as="geometry" />
        </mxCell>
        <mxCell id="4x0DBsmedhbezIaQ5GLJ-152" value="Dead letter Queue" style="text;html=1;strokeColor=none;fillColor=none;align=center;verticalAlign=middle;whiteSpace=wrap;rounded=0;glass=0;fontSize=9;" vertex="1" parent="4x0DBsmedhbezIaQ5GLJ-113">
          <mxGeometry x="411.49" y="90" width="60" height="20" as="geometry" />
        </mxCell>
        <mxCell id="4x0DBsmedhbezIaQ5GLJ-153" value="" style="shape=image;html=1;verticalAlign=top;verticalLabelPosition=bottom;labelBackgroundColor=#ffffff;imageAspect=0;aspect=fixed;image=https://cdn4.iconfinder.com/data/icons/flat-business-3/512/Flat_business-9-128.png;glass=0;fontSize=9;" vertex="1" parent="4x0DBsmedhbezIaQ5GLJ-113">
          <mxGeometry x="520" y="10" width="100" height="100" as="geometry" />
        </mxCell>
        <mxCell id="4x0DBsmedhbezIaQ5GLJ-154" value="Retry Logic to get messages rom Dead letter and reprocess" style="text;html=1;strokeColor=none;fillColor=none;align=center;verticalAlign=middle;whiteSpace=wrap;rounded=0;glass=0;fontSize=9;" vertex="1" parent="4x0DBsmedhbezIaQ5GLJ-113">
          <mxGeometry x="525" y="50" width="90" height="20" as="geometry" />
        </mxCell>
      </root>
    </mxGraphModel>
  </diagram>
</mxfile>
